# xmcd
#
# Track frame offsets:
#	151
#	14042
#	29007
#	40596
#	54749
#	70086
#	81483
#	94094
#	109527
#	121616
#	134687
#	143290
#	156733
#	167314
#	176887
#
# Disc length: 2524 seconds
#
# Revision: 0
# Processed by: cddbd v1.4PL0 Copyright (c) Steve Scherf et al.
# Submitted via: EasyCDDAExtractor 4.6.0.1
#
DISCID=cc09da0f
DTITLE=Paul Brunelle - Les légendes du Country CD 1
DYEAR=2000
DGENRE=Country
TTITLE0=Mon enfant je te pardonne
TTITLE1=Maman chérie
TTITLE2=Bonne nuit mon amour
TTITLE3=Le destin cruel
TTITLE4=Le train qui siffle
TTITLE5=Ton anneau
TTITLE6=Avant de te connaitre
TTITLE7=Tu gagne toujours
TTITLE8=Quand revient le printemp
TTITLE9=Un simple cowboy
TTITLE10=Ma rose du Texas
TTITLE11=Souvenir d'une mère
TTITLE12=Reine de mon coeur
TTITLE13=Sur le chemin
TTITLE14=Un par un
EXTD=
EXTT0=
EXTT1=
EXTT2=
EXTT3=
EXTT4=
EXTT5=
EXTT6=
EXTT7=
EXTT8=
EXTT9=
EXTT10=
EXTT11=
EXTT12=
EXTT13=
EXTT14=
PLAYORDER=
